# File created by Blade
# Date/Time:  Thu Jan 22 16:00:53 2015
#---------------------------------------------------------
:version 1.10
:name HOM
:units
  mass 1.0
  length 1.000000
  angle deg
:documentation
     Acclaim Skeleton File
:root
   axis xyz
   order TX TY TZ RX RY RZ
   position 0.000000 0.000000 0.000000
   orientation 0 0 0
:bonedata
   begin
      id 1
      name RightUpLeg_dum
      direction -1.000000 0.000000 0.000000
      length 3.766986
      axis 0.0 0.0 0.0 xyz
   end
   begin
      id 2
      name LeftUpLeg_dum
      direction 1.000000 0.000000 0.000000
      length 3.766986
      axis 0.0 0.0 0.0 xyz
   end
   begin
      id 3
      name Spine_dum
      direction 0.000000 1.000000 0.000000
      length 7.779697
      axis 0.0 0.0 0.0 xyz
   end
   begin
      id 4
      name RightUpLeg
      direction 0.000000 -1.000000 0.000000
      length 18.017682
      axis 0.0 0.0 0.0 xyz
      dof rx ry rz
   end
   begin
      id 5
      name RightLeg
      direction 0.000000 -1.000000 0.000000
      length 16.881075
      axis 0.0 0.0 0.0 xyz
      dof rx ry rz
   end
   begin
      id 6
      name RightFoot
      direction 0.000000 -0.258819 0.965926
      length 5.770812
      axis 15.0 0.0 0.0 xyz
      dof rx ry rz
   end
   begin
      id 7
      name RightToeBase
      direction 0.000000 0.000000 1.000000
      length 2.952750
      axis 0.0 0.0 0.0 xyz
      dof rx ry rz
   end
   begin
      id 8
      name LeftUpLeg
      direction 0.000000 -1.000000 0.000000
      length 18.017682
      axis 0.0 0.0 0.0 xyz
      dof rx ry rz
   end
   begin
      id 9
      name LeftLeg
      direction 0.000000 -1.000000 0.000000
      length 16.881075
      axis 0.0 0.0 0.0 xyz
      dof rx ry rz
   end
   begin
      id 10
      name LeftFoot
      direction 0.000000 -0.258819 0.965926
      length 5.770812
      axis 15.0 0.0 0.0 xyz
      dof rx ry rz
   end
   begin
      id 11
      name LeftToeBase
      direction 0.000000 0.000000 1.000000
      length 2.952750
      axis 0.0 0.0 0.0 xyz
      dof rx ry rz
   end
   begin
      id 12
      name Spine
      direction 0.000000 1.000000 0.000000
      length 0.000000
      axis 0.0 0.0 0.0 xyz
      dof rx ry rz
   end
   begin
      id 13
      name Spine_dum1
      direction 0.000000 1.000000 0.000000
      length 10.941760
      axis 0.0 0.0 0.0 xyz
   end
   begin
      id 14
      name Spine_dum2
      direction 0.000000 1.000000 0.000000
      length 10.941760
      axis 0.0 0.0 0.0 xyz
   end
   begin
      id 15
      name Spine_dum3
      direction 0.000000 1.000000 0.000000
      length 16.646042
      axis 0.0 0.0 0.0 xyz
   end
   begin
      id 16
      name RightShoulder
      direction -1.000000 0.000000 0.000000
      length 7.708937
      axis 0.0 0.0 90.0 xyz
      dof rx ry rz
   end
   begin
      id 17
      name RightArm
      direction -1.000000 0.000000 0.000000
      length 11.521345
      axis 0.0 0.0 90.0 xyz
      dof rx ry rz
   end
   begin
      id 18
      name RightForeArm
      direction -1.000000 0.000000 0.000000
      length 10.175898
      axis 0.0 0.0 90.0 xyz
      dof ry rz rx
   end
   begin
      id 19
      name RightHand
      direction -1.000000 0.000000 0.000000
      length 0.000000
      axis 0.0 0.0 90.0 xyz
      dof rx ry rz
   end
   begin
      id 20
      name RightHand_dum1
      direction -1.000000 0.000000 0.000000
      length 3.937000
      axis 0.0 0.0 90.0 xyz
   end
   begin
      id 21
      name RightHand_dum2
      direction 0.000000 0.000000 0.000000
      length 0.000000
      axis 0.0 0.0 90.0 xyz
   end
   begin
      id 22
      name RightHandThumb1
      direction 0.000000 0.000000 1.000000
      length 3.937000
      axis 0.0 0.0 90.0 xyz
      dof rx rz ry
   end
   begin
      id 23
      name LeftShoulder
      direction 1.000000 0.000000 0.000000
      length 7.708937
      axis 0.0 0.0 -90.0 xyz
      dof rx ry rz
   end
   begin
      id 24
      name LeftArm
      direction 1.000000 0.000000 0.000000
      length 11.521345
      axis 0.0 0.0 -90.0 xyz
      dof rx ry rz
   end
   begin
      id 25
      name LeftForeArm
      direction 1.000000 0.000000 0.000000
      length 10.175898
      axis 0.0 0.0 -90.0 xyz
      dof ry rz rx
   end
   begin
      id 26
      name LeftHand
      direction 1.000000 0.000000 0.000000
      length 0.000000
      axis 0.0 0.0 -90.0 xyz
      dof rx ry rz
   end
   begin
      id 27
      name LeftHand_dum1
      direction 1.000000 0.000000 0.000000
      length 3.937000
      axis 0.0 0.0 -90.0 xyz
   end
   begin
      id 28
      name LeftHand_dum2
      direction 0.000000 0.000000 0.000000
      length 0.000000
      axis 0.0 0.0 -90.0 xyz
   end
   begin
      id 29
      name LeftHandThumb1
      direction 0.000000 0.000000 1.000000
      length 3.937000
      axis 0.0 0.0 -90.0 xyz
      dof rx rz ry
   end
   begin
      id 30
      name Head
      direction 0.000000 1.000000 0.000000
      length 4.527550
      axis 0.0 0.0 0.0 xyz
      dof rx ry rz
   end
:hierarchy
   begin
      root RightUpLeg_dum LeftUpLeg_dum Spine_dum
      RightUpLeg_dum RightUpLeg
      LeftUpLeg_dum LeftUpLeg
      Spine_dum Spine
      RightUpLeg RightLeg
      RightLeg RightFoot
      RightFoot RightToeBase
      LeftUpLeg LeftLeg
      LeftLeg LeftFoot
      LeftFoot LeftToeBase
      Spine Spine_dum1 Spine_dum2 Spine_dum3
      Spine_dum1 RightShoulder
      Spine_dum2 LeftShoulder
      Spine_dum3 Head
      RightShoulder RightArm
      RightArm RightForeArm
      RightForeArm RightHand
      RightHand RightHand_dum1 RightHand_dum2
      RightHand_dum2 RightHandThumb1
      LeftShoulder LeftArm
      LeftArm LeftForeArm
      LeftForeArm LeftHand
      LeftHand LeftHand_dum1 LeftHand_dum2
      LeftHand_dum2 LeftHandThumb1
   end

# File created by Blade
# Date/Time:  Thu Jan 22 16:00:44 2015
# Frame Rate: 120.000 fps
#------------------------------------------------------
:FULLY-SPECIFIED
:DEGREES
483
root 3.845380 35.149501 -2.620420 57.021442 -1.414372 -0.711700
RightUpLeg -82.600354 -1.403481 -4.374872
RightLeg 34.158303 -0.000000 -0.000000
RightFoot -16.233704 -13.040611 18.410995
RightToeBase 12.196929 -0.000000 -0.000000
LeftUpLeg -85.657460 1.461185 6.174243
LeftLeg 37.239721 -0.000000 -0.000000
LeftFoot -12.745241 13.823918 -19.816225
LeftToeBase 7.343534 -0.000000 -0.000000
Spine 83.055377 -3.374657 -10.331375
RightShoulder -15.100895 -61.142547 -27.214318
RightArm -15.346744 -2.583412 84.297155
RightForeArm 8.165540 0.000000 4.976022
RightHand -13.178507 -0.000000 44.247465
RightHandThumb1 -24.326973 -0.000000 -32.862282
LeftShoulder -96.122455 63.919670 -56.712005
LeftArm 9.668805 1.735300 -83.041730
LeftForeArm 37.133650 -0.000000 -4.128180
LeftHand -14.944002 -0.000000 -52.054545
LeftHandThumb1 -26.253704 0.000000 33.147579
Head 5.648584 18.034549 -3.892774
484
root 3.846386 35.137138 -2.622467 57.087996 -1.423740 -0.716461
RightUpLeg -82.729093 -1.405935 -4.369648
RightLeg 34.272038 -0.000000 -0.000000
RightFoot -16.291676 -13.023826 18.412845
RightToeBase 12.188094 -0.000000 -0.000000
LeftUpLeg -85.784344 1.473899 6.172069
LeftLeg 37.358335 -0.000000 -0.000000
LeftFoot -12.794895 13.819957 -19.801035
LeftToeBase 7.308524 -0.000000 -0.000000
Spine 83.088948 -3.354866 -10.317682
RightShoulder -15.170390 -61.125743 -27.160187
RightArm -15.376440 -2.620031 84.265083
RightForeArm 8.181782 -0.000000 4.956151
RightHand -13.176175 -0.000000 44.305806
RightHandThumb1 -24.326973 -0.000000 -32.862282
LeftShoulder -96.169538 63.933355 -56.775721
LeftArm 9.684073 1.718528 -83.008746
LeftForeArm 37.036910 -0.000000 -4.135885
LeftHand -14.965900 0.000000 -52.068320
LeftHandThumb1 -26.253704 0.000000 33.147579
Head 5.550770 18.040623 -3.855154
485
root 3.845030 35.123205 -2.626592 57.138766 -1.414672 -0.723439
RightUpLeg -82.850891 -1.410381 -4.359387
RightLeg 34.405224 -0.000000 -0.000000
RightFoot -16.359496 -12.987014 18.444738
RightToeBase 12.186266 -0.000000 -0.000000
LeftUpLeg -85.909640 1.483841 6.183756
LeftLeg 37.490944 -0.000000 -0.000000
LeftFoot -12.868736 13.789432 -19.848441
LeftToeBase 7.359641 -0.000000 -0.000000
Spine 83.138923 -3.308886 -10.294658
RightShoulder -15.258236 -61.120939 -27.030720
RightArm -15.431228 -2.620128 84.173263
RightForeArm 8.166383 -0.000000 4.964922
RightHand -13.147438 -0.000000 44.352278
RightHandThumb1 -24.326973 -0.000000 -32.862282
LeftShoulder -96.310726 63.939516 -56.858562
LeftArm 9.705858 1.681144 -82.985199
LeftForeArm 37.171876 -0.000000 -4.138443
LeftHand -14.914270 -0.000000 -52.139560
LeftHandThumb1 -26.253704 0.000000 33.147579
Head 5.436377 18.085868 -3.685101
486
root 3.842782 35.107326 -2.633648 57.198815 -1.415940 -0.739043
RightUpLeg -82.997056 -1.404127 -4.349669
RightLeg 34.557288 -0.000000 -0.000000
RightFoot -16.421582 -12.957374 18.461400
RightToeBase 12.178161 -0.000000 -0.000000
LeftUpLeg -86.057726 1.516916 6.180838
LeftLeg 37.645040 -0.000000 -0.000000
LeftFoot -12.922762 13.752943 -19.858926
LeftToeBase 7.339270 -0.000000 -0.000000
Spine 83.169251 -3.287097 -10.291549
RightShoulder -15.295018 -61.143739 -27.012634
RightArm -15.471147 -2.651665 84.112378
RightForeArm 8.147138 -0.000000 4.951444
RightHand -13.140387 -0.000000 44.320033
RightHandThumb1 -24.326973 -0.000000 -32.862282
LeftShoulder -96.467296 63.952154 -57.024062
LeftArm 9.704518 1.636835 -82.937498
LeftForeArm 37.243094 -0.000000 -4.134134
LeftHand -14.897763 -0.000000 -52.065944
LeftHandThumb1 -26.253704 0.000000 33.147579
Head 5.338031 18.109224 -3.688463
487
root 3.839135 35.090405 -2.638706 57.260732 -1.414753 -0.757625
RightUpLeg -83.155260 -1.394429 -4.333531
RightLeg 34.730151 -0.000000 -0.000000
RightFoot -16.504493 -12.918055 18.507295
RightToeBase 12.223303 -0.000000 -0.000000
LeftUpLeg -86.206144 1.556281 6.173591
LeftLeg 37.802149 -0.000000 -0.000000
LeftFoot -12.983816 13.701838 -19.866856
LeftToeBase 7.309285 -0.000000 -0.000000
Spine 83.199438 -3.279198 -10.338494
RightShoulder -15.213490 -61.181131 -27.121718
RightArm -15.490924 -2.664646 84.064649
RightForeArm 8.158880 -0.000000 4.934322
RightHand -13.171201 -0.000000 44.304507
RightHandThumb1 -24.326973 -0.000000 -32.862282
LeftShoulder -96.338747 63.953402 -56.848950
LeftArm 9.543504 1.603478 -82.887008
LeftForeArm 37.156677 -0.000000 -4.193613
LeftHand -14.936685 0.000000 -52.031855
LeftHandThumb1 -26.253704 0.000000 33.147579
Head 5.267555 18.073363 -3.760161
488
root 3.837294 35.072223 -2.643416 57.290566 -1.399682 -0.754736
RightUpLeg -83.283352 -1.421607 -4.303139
RightLeg 34.907518 -0.000000 -0.000000
RightFoot -16.578492 -12.855172 18.527479
RightToeBase 12.241742 -0.000000 -0.000000
LeftUpLeg -86.328053 1.566000 6.163688
LeftLeg 37.961130 -0.000000 -0.000000
LeftFoot -13.044761 13.646193 -19.863160
LeftToeBase 7.328410 -0.000000 -0.000000
Spine 83.272081 -3.277380 -10.357174
RightShoulder -15.207379 -61.207862 -27.151170
RightArm -15.539145 -2.652962 83.968985
RightForeArm 8.048375 -0.000000 4.901486
RightHand -13.184945 0.000000 44.338203
RightHandThumb1 -24.326973 -0.000000 -32.862282
LeftShoulder -96.456696 63.956201 -56.951113
LeftArm 9.477155 1.559356 -82.826224
LeftForeArm 37.244729 -0.000000 -4.181520
LeftHand -14.978674 -0.000000 -52.042171
LeftHandThumb1 -26.253704 0.000000 33.147579
Head 5.184956 18.054074 -3.758639
489
root 3.837248 35.052456 -2.647727 57.315500 -1.410209 -0.743304
RightUpLeg -83.425095 -1.447178 -4.277912
RightLeg 35.115605 -0.000000 -0.000000
RightFoot -16.654545 -12.796397 18.541311
RightToeBase 12.238851 -0.000000 -0.000000
LeftUpLeg -86.449485 1.581512 6.114018
LeftLeg 38.134502 -0.000000 -0.000000
LeftFoot -13.107940 13.600945 -19.863460
LeftToeBase 7.265825 -0.000000 -0.000000
Spine 83.343278 -3.259084 -10.368771
RightShoulder -15.225011 -61.279310 -27.155553
RightArm -15.583182 -2.625249 83.883930
RightForeArm 8.038391 -0.000000 4.864993
RightHand -13.158383 -0.000000 44.295008
RightHandThumb1 -24.326973 -0.000000 -32.862282
LeftShoulder -96.522166 63.998360 -57.009318
LeftArm 9.399147 1.588258 -82.750016
LeftForeArm 37.306455 0.000000 -4.186650
LeftHand -15.014300 -0.000000 -51.941445
LeftHandThumb1 -26.253704 0.000000 33.147579
Head 5.111325 17.937080 -3.840527
490
root 3.837969 35.029891 -2.657101 57.349157 -1.407592 -0.734483
RightUpLeg -83.580791 -1.470548 -4.268363
RightLeg 35.323014 -0.000000 -0.000000
RightFoot -16.746452 -12.747465 18.554758
RightToeBase 12.256223 -0.000000 -0.000000
LeftUpLeg -86.602503 1.584760 6.099134
LeftLeg 38.330864 -0.000000 -0.000000
LeftFoot -13.181032 13.557845 -19.875131
LeftToeBase 7.298957 -0.000000 -0.000000
Spine 83.381263 -3.242924 -10.354407
RightShoulder -15.205936 -61.370544 -27.155332
RightArm -15.678950 -2.604912 83.787674
RightForeArm 7.974129 -0.000000 4.868507
RightHand -13.139565 -0.000000 44.299282
RightHandThumb1 -24.326973 -0.000000 -32.862282
LeftShoulder -96.753438 64.054592 -57.216584
LeftArm 9.362743 1.554851 -82.670172
LeftForeArm 37.459627 -0.000000 -4.182044
LeftHand -14.986092 -0.000000 -51.976051
LeftHandThumb1 -26.253704 0.000000 33.147579
Head 5.118914 17.915899 -3.767344
